<svg width="1125" height="771" viewBox="0 0 1125 771" fill="none" xmlns="http://www.w3.org/2000/svg">
<g id="Group 1">
<path id="bGround" d="M1060.81 437.402C1023.15 485.286 1037.78 555.238 1061.71 611.262C1069.73 630.019 1078.79 649.864 1075.41 669.979C1071.27 694.576 1049.32 712.563 1026.27 722.095C984.254 739.472 933.974 735.331 895.365 711.313C862.001 690.557 838.107 656.803 804.173 636.992C747.384 603.838 675.101 616.358 613.437 639.196C569.81 655.353 522.114 676.365 478.764 659.48C448.261 647.599 427.176 618.68 415.688 588.027C410.141 573.227 406.116 557.207 395.524 545.477C389.227 538.503 381.009 533.552 372.59 529.378C295.719 491.264 198.63 511.675 123.965 469.401C73.5392 440.85 41.2566 386.995 26.9629 330.838C12.6692 274.681 14.3341 215.796 17.9632 157.962C20.5422 116.862 25.1695 72.9841 51.4307 41.2633C79.2114 7.70707 126.889 -4.77055 169.983 1.60744C213.077 7.98543 252.139 30.7175 286.503 57.492C329.451 90.9544 369.281 132.623 422.012 146.178C457.922 155.409 495.698 150.36 532.734 148.611C594.65 145.688 656.592 152.189 718.167 159.307C777.115 166.121 836.488 173.621 892.644 192.797C932.385 206.368 964.245 231.001 1001.77 248.21C1026.23 259.427 1052.9 262.525 1076.06 276.812C1104.59 294.412 1130.74 325.025 1123.44 360.847C1116.49 394.905 1080.8 411.987 1060.81 437.402Z" fill="url(#paint0_linear)"/>
<path id="Vector" d="M735.045 146.859C735.045 146.859 674.504 128.929 670.504 179.929C666.504 230.929 686.504 314.929 670.504 341.929C654.504 368.929 597.411 407.938 627.458 411.434C657.504 414.929 672.504 419.929 663.504 437.929C654.504 455.929 607.504 472.929 617.504 485.929C627.504 498.929 632.504 514.929 622.504 530.929C612.504 546.929 577.504 556.929 583.504 567.929C589.504 578.929 611.504 584.929 600.504 596.929C589.504 608.929 557.616 636.225 570.06 636.077" stroke="#535461" stroke-width="3" stroke-miterlimit="10"/>
<g id="roboHead">
<path id="Vector_2" d="M823.484 112.881H695.812C688.649 112.881 682.842 118.688 682.842 125.851V171.152C682.842 178.315 688.649 184.121 695.812 184.121H823.484C830.647 184.121 836.454 178.315 836.454 171.152V125.851C836.454 118.688 830.647 112.881 823.484 112.881Z" fill="#6C63FF"/>
<path id="Vector_3" opacity="0.1" d="M824.21 173.188H695.087V174.523H824.21V173.188Z" fill="black"/>
<path id="Vector_4" opacity="0.3" d="M824.21 124.012H695.087V172.99H824.21V124.012Z" fill="black"/>
<path id="Vector_5" opacity="0.1" d="M725.141 167.333C734.977 167.333 742.951 159.36 742.951 149.523C742.951 139.687 734.977 131.713 725.141 131.713C715.305 131.713 707.331 139.687 707.331 149.523C707.331 159.36 715.305 167.333 725.141 167.333Z" fill="black"/>
<path id="Vector_6" opacity="0.1" d="M794.155 167.333C803.991 167.333 811.965 159.36 811.965 149.523C811.965 139.687 803.991 131.713 794.155 131.713C784.319 131.713 776.345 139.687 776.345 149.523C776.345 159.36 784.319 167.333 794.155 167.333Z" fill="black"/>
<path id="Vector_7" d="M773.003 184.119H746.29V199.707H773.003V184.119Z" fill="#6C63FF"/>
</g>
<path id="tummy" d="M815.305 195.253H703.992V284.303H815.305V195.253Z" fill="#6C63FF"/>
<path id="Vector_8" d="M817.531 302.113H701.765V313.244H817.531V302.113Z" fill="#6C63FF"/>
<path id="Vector_9" d="M720.689 339.96V353.317V373.353V384.485V391.164H740.725V384.485V373.353V353.317V339.96V324.376H720.689V339.96Z" fill="#6C63FF"/>
<path id="Vector_10" d="M780.798 324.376V339.96V353.317V373.353V384.485V391.164H800.834V384.485V373.353V353.317V339.96V324.376H780.798Z" fill="#6C63FF"/>
<path id="Vector_11" d="M688.83 215.29V235.881C683.33 236.841 678.206 239.311 674.029 243.015C670.156 246.603 667.144 251.019 665.218 255.935C662.763 262.246 661.3 268.899 660.879 275.657C660.249 284.495 660.663 293.375 662.111 302.116H639.849C638.921 291.481 639.116 280.778 640.431 270.184C641.482 261.427 643.892 252.888 647.576 244.876C654.026 231.347 663.2 224.009 671.259 220.022C676.72 217.23 682.706 215.618 688.83 215.29Z" fill="#6C63FF"/>
<path id="Vector_12" opacity="0.3" d="M740.725 324.376H720.689V339.96H740.725V324.376Z" fill="black"/>
<path id="Vector_13" opacity="0.3" d="M740.725 353.317H720.689V373.354H740.725V353.317Z" fill="black"/>
<path id="Vector_14" opacity="0.3" d="M740.725 384.485H720.689V391.164H740.725V384.485Z" fill="black"/>
<path id="Vector_15" opacity="0.3" d="M800.834 324.376H780.798V339.96H800.834V324.376Z" fill="black"/>
<path id="Vector_16" opacity="0.3" d="M800.834 353.317H780.798V373.354H800.834V353.317Z" fill="black"/>
<path id="Vector_17" opacity="0.3" d="M800.834 384.485H780.798V391.164H800.834V384.485Z" fill="black"/>
<path id="Vector_18" opacity="0.3" d="M688.83 215.29V235.881C683.33 236.841 678.206 239.311 674.029 243.015L671.259 220.022C676.72 217.23 682.706 215.618 688.83 215.29V215.29Z" fill="black"/>
<path id="Vector_19" opacity="0.3" d="M665.218 255.935C662.763 262.246 661.3 268.899 660.879 275.657L640.431 270.184C641.482 261.427 643.892 252.888 647.576 244.876L665.218 255.935Z" fill="black"/>
<path id="Vector_20" d="M830.466 215.29V235.881C835.966 236.841 841.09 239.311 845.267 243.015C849.14 246.603 852.152 251.019 854.078 255.935C856.533 262.246 857.997 268.899 858.417 275.657C859.047 284.495 858.634 293.375 857.185 302.116H879.447C880.375 291.481 880.18 280.778 878.865 270.184C877.815 261.427 875.404 252.888 871.72 244.876C865.27 231.347 856.097 224.009 848.037 220.022C842.577 217.23 836.59 215.618 830.466 215.29V215.29Z" fill="#6C63FF"/>
<path id="Vector_21" opacity="0.3" d="M830.466 215.29V235.881C835.966 236.841 841.09 239.311 845.267 243.015L848.037 220.022C842.577 217.23 836.59 215.618 830.466 215.29V215.29Z" fill="black"/>
<path id="Vector_22" opacity="0.3" d="M854.078 255.935C856.533 262.246 857.997 268.899 858.417 275.657L878.865 270.184C877.815 261.427 875.404 252.888 871.72 244.876L854.078 255.935Z" fill="black"/>
<path id="Vector_23" opacity="0.1" d="M773.003 184.119H746.29V185.964H773.003V184.119Z" fill="black"/>
<path id="Vector_24" opacity="0.1" d="M817.283 211.119V248.402C815.951 246.965 815.212 245.077 815.213 243.117V216.399C815.212 214.441 815.951 212.555 817.283 211.119V211.119Z" fill="black"/>
<path id="Vector_25" opacity="0.1" d="M704.387 213.578V241.487C704.254 243.252 703.522 244.918 702.312 246.209V208.855C703.522 210.147 704.254 211.813 704.387 213.578V213.578Z" fill="black"/>
<path id="Vector_26" opacity="0.1" d="M809.739 284.305H709.559V285.623H809.739V284.305Z" fill="black"/>
<path id="Vector_27" opacity="0.1" d="M756.307 313.247H707.331V314.269H756.307V313.247Z" fill="black"/>
<path id="Vector_28" opacity="0.1" d="M809.739 313.247H760.763V314.269H809.739V313.247Z" fill="black"/>
<g id="roboHead1">
<path id="Vector_29" d="M720.46 46.9528H712.794V112.881H720.46V46.9528Z" fill="#6C63FF"/>
<path id="Vector_30" d="M808.365 46.9528H800.698V112.881H808.365V46.9528Z" fill="#6C63FF"/>
<path id="Vector_31" opacity="0.1" d="M716.372 56.152C721.17 56.152 725.06 52.2622 725.06 47.4638C725.06 42.6655 721.17 38.7756 716.372 38.7756C711.573 38.7756 707.683 42.6655 707.683 47.4638C707.683 52.2622 711.573 56.152 716.372 56.152Z" fill="black"/>
<path id="Vector_32" d="M716.372 55.641C721.17 55.641 725.06 51.7511 725.06 46.9527C725.06 42.1544 721.17 38.2645 716.372 38.2645C711.573 38.2645 707.683 42.1544 707.683 46.9527C707.683 51.7511 711.573 55.641 716.372 55.641Z" fill="#6C63FF"/>
<path id="Vector_33" opacity="0.1" d="M804.787 56.152C809.585 56.152 813.475 52.2622 813.475 47.4638C813.475 42.6655 809.585 38.7756 804.787 38.7756C799.989 38.7756 796.099 42.6655 796.099 47.4638C796.099 52.2622 799.989 56.152 804.787 56.152Z" fill="black"/>
<path id="Vector_34" d="M804.787 55.641C809.585 55.641 813.475 51.7511 813.475 46.9527C813.475 42.1544 809.585 38.2645 804.787 38.2645C799.989 38.2645 796.099 42.1544 796.099 46.9527C796.099 51.7511 799.989 55.641 804.787 55.641Z" fill="#6C63FF"/>
<path id="Vector_35" d="M904.978 94.5989L834.346 116.668L837.03 125.259L907.662 103.189L904.978 94.5989Z" fill="#6C63FF"/>
</g>
<path id="Vector_36" d="M936.425 428.945C936.425 428.945 897.701 421.2 887.375 410.874C877.048 400.547 830.58 382.476 825.417 395.384C820.254 408.292 755.714 452.179 799.601 459.924C843.488 467.668 902.864 470.25 915.772 465.087C928.68 459.924 936.425 428.945 936.425 428.945Z" fill="#A8A8A8"/>
<path id="Vector_37" opacity="0.2" d="M799.601 455.128C843.488 462.873 902.864 465.455 915.772 460.291C925.602 456.359 932.433 437.467 935.134 428.676C935.951 428.849 936.425 428.945 936.425 428.945C936.425 428.945 928.68 459.924 915.772 465.087C902.864 470.25 843.488 467.669 799.601 459.924C786.932 457.688 783.31 452.438 784.674 445.794C785.757 450.129 790.172 453.464 799.601 455.128Z" fill="black"/>
<path id="Vector_38" d="M1022.42 91.337C1021.73 89.6177 1020.63 88.0932 1019.22 86.8959C1008.83 77.4251 992.019 80.296 979.118 74.5109C976.146 73.1783 973.097 71.3295 969.87 71.8361C965.363 72.5435 961.173 77.6737 957.244 75.3975L957.526 76.2545C957.432 76.2085 957.338 76.1624 957.244 76.1081C958.208 79.0421 959.171 81.976 960.134 84.9099C961.243 88.289 962.413 91.7665 964.571 94.5803C961.38 97.3628 958.938 100.901 957.469 104.871C955.999 108.84 955.548 113.116 956.157 117.305C956.766 121.494 958.416 125.464 960.955 128.85C963.495 132.237 966.843 134.934 970.693 136.692C970.83 136.987 970.965 137.283 971.097 137.581C971.219 137.636 971.345 137.684 971.468 137.738C972.325 139.706 972.964 141.762 973.375 143.869C970.031 144.331 964.202 148.029 958.467 153.489L947 153.097C939.592 152.85 932.423 150.413 926.399 146.093L892.11 121.441C889.666 121.681 887.363 122.699 885.54 124.345C881.282 119.909 877.669 115.274 877.977 112.559C877.977 112.559 862.031 82.7147 856.232 97.637C850.434 112.559 867.105 128.192 867.105 128.192L877.68 141.892C877.263 144.294 876.999 146.719 876.889 149.154C889.936 164.076 935.599 177.578 935.599 177.578L942.719 177.922C942.734 178.053 942.746 178.163 942.759 178.272C942.322 180.14 942.108 182.054 942.122 183.973C942.126 184.248 942.131 184.537 942.136 184.826C942.134 185.015 942.119 185.205 942.122 185.394C942.484 209.199 945.746 282.033 945.746 282.033C946.381 281.75 947.036 281.492 947.703 281.248L947.196 287.718C947.196 287.718 916.754 291.981 894.285 300.508C871.816 309.035 871.091 318.984 871.091 318.984V406.764C864.671 410.058 854.545 414.387 849.347 412.07C843.704 409.555 840.606 411.668 840.046 413.873V413.874C839.932 414.307 839.923 414.762 840.021 415.199L840.028 415.226C840.076 415.422 840.149 415.611 840.244 415.789L840.266 415.83C840.37 416.015 840.499 416.184 840.649 416.333C842.823 418.465 889.936 436.94 900.808 434.098C901.144 434.01 901.473 433.899 901.793 433.766C901.898 433.723 901.991 433.666 902.092 433.618C902.293 433.523 902.496 433.431 902.684 433.32C902.796 433.253 902.896 433.173 903.004 433.101C903.166 432.992 903.332 432.887 903.484 432.766C903.59 432.682 903.685 432.585 903.786 432.495C903.926 432.37 904.068 432.249 904.199 432.114C904.294 432.015 904.379 431.906 904.469 431.802C904.592 431.661 904.717 431.522 904.831 431.37C904.914 431.262 904.987 431.144 905.065 431.03C905.174 430.871 905.286 430.713 905.386 430.544C905.456 430.428 905.518 430.305 905.583 430.185C905.681 430.006 905.779 429.829 905.868 429.642C905.925 429.522 905.976 429.397 906.03 429.273C906.116 429.076 906.202 428.878 906.28 428.673C906.326 428.553 906.366 428.428 906.409 428.305C906.485 428.087 906.559 427.869 906.626 427.644C906.661 427.527 906.692 427.408 906.724 427.289C906.79 427.049 906.854 426.808 906.912 426.562C906.937 426.453 906.959 426.341 906.982 426.231C907.038 425.969 907.092 425.705 907.139 425.437C907.156 425.338 907.171 425.238 907.187 425.138C907.233 424.852 907.276 424.565 907.312 424.273C907.323 424.19 907.332 424.106 907.341 424.023C907.377 423.711 907.41 423.398 907.436 423.083C907.441 423.017 907.446 422.951 907.451 422.885C907.477 422.549 907.498 422.211 907.513 421.872C907.516 421.827 907.517 421.782 907.519 421.737C907.534 421.375 907.544 421.013 907.549 420.651L907.55 420.583C907.534 416.344 907.065 412.118 906.15 407.979V407.979L908.781 333.195C923.016 333.416 937.254 332.892 951.434 331.624L952.994 367.303C952.994 367.303 952.994 390.752 960.967 401.411C967.79 410.533 975.674 450.876 977.806 462.322C974.876 467.907 969.273 474.814 959.517 474.601C959.517 474.601 941.16 473.014 942.195 478.064L942.197 478.072C942.225 478.204 942.264 478.334 942.312 478.459L942.324 478.492C942.381 478.637 942.448 478.779 942.523 478.915L942.54 478.943C942.613 479.074 942.699 479.208 942.794 479.346C942.813 479.374 942.832 479.402 942.853 479.43C942.96 479.579 943.076 479.731 943.21 479.889L943.243 479.927C943.365 480.069 943.501 480.216 943.646 480.366C943.686 480.407 943.726 480.448 943.768 480.49C943.932 480.655 944.104 480.823 944.296 480.996C953.719 489.523 1008.8 490.945 1008.8 490.945L1008.8 490.912L1008.8 490.89L1008.8 490.783L1008.8 490.752C1008.8 490.698 1008.8 490.63 1008.8 490.554L1008.8 490.525C1008.77 488.058 1008.44 475.11 1005.14 465.364H1005.9C1005.9 465.364 997.932 393.595 991.409 385.068C991.409 385.068 989.675 347.225 993.588 323.508C993.828 323.421 994.071 323.336 994.308 323.247C1012.58 316.423 1013.88 299.616 1012 287.268C1015.45 288.378 1017.5 289.139 1017.5 289.139C1017.5 289.139 1017.44 288.602 1017.32 287.652C1017.44 287.694 1017.5 287.718 1017.5 287.718C1017.5 287.718 1017.15 285.461 1016.58 281.939C1015.27 272.256 1012.74 255.335 1010.04 247.346C1009.61 245.59 1009.19 244.089 1008.8 242.951C1007.25 238.151 1006.18 233.206 1005.61 228.191C1004.87 221.692 1004.5 215.158 1004.49 208.617C1004.55 199.877 1005.22 191.152 1006.5 182.506C1007.6 174.953 1008.6 166.364 1008.52 160.366C1008.59 158.278 1008.45 156.186 1008.08 154.128C1007.11 149.7 1002.84 146.82 998.398 144.988C998.112 144.87 997.819 144.773 997.53 144.664C997.638 142.985 997.78 141.083 997.963 139.078C998.496 139.447 999.098 139.703 999.733 139.832C1000.37 139.961 1001.02 139.959 1001.66 139.826C1003.57 139.408 1004.94 137.815 1006.16 136.315C1012.58 128.426 1019.18 120.202 1021.64 110.401C1022.63 106.023 1023.09 101.543 1023 97.0567C1023 96.8115 1023 96.5657 1023 96.3193C1023.1 94.6373 1022.9 92.9514 1022.42 91.337V91.337Z" fill="url(#paint1_linear)"/>
<path id="Vector_39" d="M963.933 129.798C963.933 129.798 973.665 144.397 971.58 151.349C969.494 158.3 994.521 154.129 994.521 154.129C994.521 154.129 995.216 127.017 1000.08 120.761C1004.95 114.504 963.933 129.798 963.933 129.798Z" fill="#F7C4A7"/>
<path id="Vector_40" d="M879.121 400.919C879.121 400.919 860.351 412.737 852.704 409.261C845.057 405.785 842.276 411.346 844.362 413.432C846.447 415.517 891.634 433.592 902.062 430.811C912.489 428.031 907.186 405.258 907.186 405.258L879.121 400.919Z" fill="#535461"/>
<path id="Vector_41" d="M978.532 451.667C978.532 451.667 974.013 470.784 958.371 470.437C958.371 470.437 934.735 468.351 943.772 476.693C952.81 485.036 1005.64 486.426 1005.64 486.426C1005.64 486.426 1005.64 457.924 995.911 451.667C986.179 445.41 978.532 451.667 978.532 451.667Z" fill="#535461"/>
<path id="Vector_42" d="M950.029 316.802L952.115 365.464C952.115 365.464 952.115 388.405 959.762 398.833C967.409 409.261 976.446 461.399 976.446 461.399H1002.86C1002.86 461.399 995.216 391.186 988.959 382.844C988.959 382.844 986.179 320.973 995.911 307.069L950.029 316.802Z" fill="#575988"/>
<path id="Vector_43" opacity="0.1" d="M950.029 316.802L952.115 365.464C952.115 365.464 952.115 388.405 959.762 398.833C967.409 409.261 976.446 461.399 976.446 461.399H1002.86C1002.86 461.399 995.216 391.186 988.959 382.844C988.959 382.844 986.179 320.973 995.911 307.069L950.029 316.802Z" fill="black"/>
<path id="Vector_44" d="M1004.95 273.005C1004.95 273.005 1020.94 311.24 991.74 322.363C962.542 333.486 909.709 332.096 909.709 332.096L906.928 412.737C906.928 412.737 874.254 416.908 873.559 406.48V318.192C873.559 318.192 874.254 308.46 895.805 300.117C917.356 291.775 946.553 287.604 946.553 287.604L947.944 269.529L1004.95 273.005Z" fill="#575988"/>
<path id="Vector_45" opacity="0.1" d="M979.329 147.049C984.881 146.435 990.499 147.23 995.663 149.359C999.923 151.151 1004.02 153.968 1004.95 158.3C1006.05 163.431 1004.83 174.938 1003.43 184.672C1001.19 199.936 1000.91 215.422 1002.58 230.757C1003.3 237.144 1004.29 242.713 1005.64 245.198C1009.81 252.845 1013.99 288.995 1013.99 288.995C1013.99 288.995 968.104 271.615 945.163 282.043C945.163 282.043 942.035 210.787 941.687 187.498C941.418 169.465 964.28 148.915 971.927 148.22C976.409 147.813 974.876 147.511 979.329 147.049Z" fill="black"/>
<path id="Vector_46" d="M979.329 145.659C984.881 145.045 990.499 145.839 995.663 147.968C999.923 149.761 1004.02 152.578 1004.95 156.91C1006.05 162.041 1004.83 173.548 1003.43 183.282C1001.19 198.545 1000.91 214.032 1002.58 229.367C1003.12 234.27 1004.15 239.107 1005.64 243.808C1008.77 253.193 1013.99 287.604 1013.99 287.604C1013.99 287.604 968.104 270.225 945.163 280.652C945.163 280.652 942.035 209.396 941.687 186.108C941.418 168.075 964.28 147.525 971.927 146.83C976.409 146.423 974.876 146.121 979.329 145.659Z" fill="#E14B5A"/>
<path id="Vector_47" opacity="0.1" d="M991.74 184.022L942.382 181.241C942.382 181.241 939.241 157.043 946.366 157.292L995.216 158.996C995.216 158.996 1005.64 171.509 991.74 184.022Z" fill="black"/>
<g id="manHand">
<path id="Vector_48" d="M991.74 182.632L935.43 179.851C935.43 179.851 891.634 166.643 879.121 152.044C879.121 152.044 879.816 126.322 893.719 124.932L926.606 149.049C932.356 153.265 939.241 155.653 946.366 155.901L995.216 157.605C995.216 157.605 1005.64 170.119 991.74 182.632Z" fill="#E14B5A"/>
<path id="Vector_49" d="M899.628 139.183C899.628 139.183 879.468 122.499 880.163 116.242C880.163 116.242 864.869 87.0444 859.308 101.643C853.747 116.242 869.736 131.536 869.736 131.536L889.201 157.258L899.628 139.183Z" fill="#F7C4A7"/>
</g>
<path id="Vector_50" opacity="0.1" d="M994.173 132.926C994.999 126.334 997.989 124.148 1000.08 121.456C1004.95 115.199 963.933 130.493 963.933 130.493C966.047 133.751 967.901 137.172 969.477 140.722C972.752 142.23 976.316 143.009 979.922 143.006C985.969 143.006 989.847 136.497 994.173 132.926Z" fill="black"/>
<path id="Vector_51" d="M979.922 142.311C993.744 142.311 1004.95 131.107 1004.95 117.285C1004.95 103.463 993.744 92.2582 979.922 92.2582C966.1 92.2582 954.895 103.463 954.895 117.285C954.895 131.107 966.1 142.311 979.922 142.311Z" fill="#F7C4A7"/>
<path id="Vector_52" opacity="0.1" d="M964.118 99.7429C961.453 96.8322 960.172 92.9489 958.963 89.192L956.191 80.581C959.96 82.8078 963.978 77.7888 968.3 77.0967C971.396 76.6011 974.32 78.4098 977.17 79.7136C989.545 85.3733 1005.67 82.5646 1015.63 91.8301C1016.99 93.0083 1018.05 94.4993 1018.7 96.175C1019.17 97.7647 1019.36 99.422 1019.26 101.075C1019.34 105.463 1018.9 109.845 1017.96 114.13C1015.59 123.719 1009.27 131.764 1003.1 139.483C1001.93 140.95 1000.62 142.509 998.789 142.918C995.212 143.717 992.444 139.85 991.06 136.456C989.226 131.961 987.874 127.284 987.026 122.504C986.811 120.46 986.253 118.466 985.374 116.608C983.22 112.789 977.911 109.175 974.682 106.217C971.508 103.31 967.083 102.981 964.118 99.7429Z" fill="black"/>
<path id="Vector_53" d="M964.118 99.0477C961.453 96.137 960.172 92.2537 958.963 88.4968L956.191 79.8858C959.96 82.1126 963.978 77.0936 968.3 76.4015C971.396 75.9059 974.32 77.7147 977.17 79.0184C989.545 84.6781 1005.67 81.8694 1015.63 91.1349C1016.99 92.3131 1018.05 93.8041 1018.7 95.4798C1019.17 97.0695 1019.36 98.7268 1019.26 100.38C1019.34 104.768 1018.9 109.15 1017.96 113.435C1015.59 123.024 1009.27 131.069 1003.1 138.788C1001.93 140.255 1000.62 141.814 998.789 142.223C995.212 143.021 992.444 139.155 991.06 135.761C989.226 131.266 987.874 126.589 987.026 121.809C986.811 119.765 986.253 117.771 985.374 115.912C983.22 112.094 977.911 108.48 974.682 105.522C971.508 102.615 967.083 102.286 964.118 99.0477Z" fill="#632652"/>
<path id="Vector_54" d="M986.526 124.584C987.678 124.584 988.612 122.561 988.612 120.065C988.612 117.57 987.678 115.547 986.526 115.547C985.374 115.547 984.441 117.57 984.441 120.065C984.441 122.561 985.374 124.584 986.526 124.584Z" fill="#F7C4A7"/>
<path id="Vector_55" opacity="0.1" d="M999.039 240.679C999.039 240.679 997.649 244.851 990.697 244.155C983.745 243.46 963.585 242.07 963.585 244.155" fill="black"/>
<path id="Vector_56" opacity="0.5" d="M943.772 475.998C942.817 475.261 942.111 474.249 941.75 473.098C941.568 474.001 942.126 475.173 943.772 476.693C952.81 485.036 1005.64 486.426 1005.64 486.426C1005.64 486.426 1005.64 486.18 1005.64 485.731C1005.3 485.722 952.781 484.314 943.772 475.998Z" fill="white"/>
<path id="Vector_57" opacity="0.5" d="M902.062 429.421C891.634 432.202 846.447 414.127 844.362 412.042C844.083 411.759 843.883 411.409 843.783 411.025C843.662 411.442 843.652 411.883 843.754 412.305C843.855 412.727 844.065 413.116 844.362 413.432C846.447 415.517 891.634 433.592 902.062 430.811C907.429 429.38 908.625 422.654 908.525 416.462C908.423 422.236 907.029 428.097 902.062 429.421Z" fill="white"/>
<path id="Vector_58" d="M505.498 482.7C503.06 469.137 501.564 455.421 501.021 441.651V441.651C500.543 430.31 496.567 419.395 489.638 410.404C482.71 401.412 473.168 394.785 462.324 391.433C458.375 390.218 454.02 389.082 449.217 388.062C407.089 379.114 394.292 386.927 392.838 387.954C391.611 385.71 390.545 383.383 389.648 380.988C389.577 380.745 389.51 380.497 389.442 380.251C397.779 371.359 402.858 359.905 403.851 347.757C410.878 340.631 414.984 332.035 414.984 322.779C414.984 314.819 411.944 307.348 406.624 300.879V288.318C406.624 281.134 405.209 274.02 402.46 267.383C399.711 260.746 395.681 254.715 390.602 249.635C385.522 244.555 379.491 240.526 372.854 237.777C366.217 235.027 359.103 233.612 351.919 233.612H347.483C340.299 233.612 333.185 235.027 326.548 237.777C319.911 240.526 313.88 244.555 308.8 249.635C303.72 254.715 299.691 260.746 296.942 267.383C294.192 274.02 292.777 281.134 292.777 288.318V301.877C287.983 307.799 285.319 315.161 285.214 322.779C285.214 331.84 289.152 340.268 295.911 347.305C296.834 359.899 302.148 371.77 310.924 380.85C311.22 382.904 311.524 385.115 311.824 387.447L236.451 403.388C236.451 403.388 207.392 404.582 188.683 443.194C172.844 475.883 141.316 559.919 132.014 584.938H132.014L132.014 584.938C130.328 589.472 129.371 592.071 129.371 592.071C129.371 592.071 129.68 591.759 130.272 591.226C129.686 592.808 129.371 593.663 129.371 593.663C129.371 593.663 129.829 593.201 130.698 592.44C129.378 602.911 129.189 620.881 142.905 623.12C154.403 624.997 184.017 625.768 206.397 626.084V626.106H207.949C222.779 626.305 234.063 626.305 234.063 626.305V626.106H474.694V623.64C474.696 621.4 474.245 619.183 473.368 617.122C473.483 616.988 473.595 616.854 473.703 616.719C474.991 618.419 475.847 620.406 476.2 622.509C476.173 622.715 476.136 622.919 476.087 623.12C476.087 623.12 476.137 622.992 476.229 622.752C476.286 623.409 476.238 624.071 476.087 624.712C476.087 624.712 506.96 545.165 506.63 497.667C506.72 492.654 506.341 487.643 505.498 482.7ZM313.058 398.188C312.661 395.92 312.406 393.628 312.294 391.328L312.296 391.265C312.562 393.498 312.819 395.814 313.058 398.188ZM219.533 569.051V588.009L207.649 590.547L219.533 569.051Z" fill="url(#paint2_linear)"/>
<path id="Vector_59" d="M348.466 241.263H348.466C362.974 241.263 376.889 247.027 387.148 257.286C397.407 267.545 403.171 281.46 403.171 295.969V319.305H293.76V295.969C293.76 281.46 299.524 267.545 309.783 257.286C320.042 247.027 333.957 241.263 348.466 241.263V241.263Z" fill="#E14B5A"/>
<path id="Vector_60" d="M348.848 369.802C383.287 369.802 411.205 350.619 411.205 326.956C411.205 303.292 383.287 284.11 348.848 284.11C314.41 284.11 286.492 303.292 286.492 326.956C286.492 350.619 314.41 369.802 348.848 369.802Z" fill="#E14B5A"/>
<path id="Vector_61" d="M308.871 368.463C308.871 368.463 321.878 436.558 308.871 454.92C295.864 473.283 348.657 480.551 348.657 480.551L403.362 460.659L411.013 411.692C411.013 411.692 377.731 392.946 384.617 355.073L308.871 368.463Z" fill="#F7C4A7"/>
<path id="Vector_62" d="M470.309 597.996C470.309 597.996 473.752 612.915 455.007 615.593C443.937 617.222 432.679 617.088 421.651 615.196L417.517 577.72H461.128L470.309 597.996Z" fill="#F7C4A7"/>
<path id="Vector_63" d="M139.262 578.899C139.262 578.899 130.983 612.533 149.729 615.593C168.474 618.654 237.334 618.654 237.334 618.654V578.868L206.161 585.526L176.89 557.445L139.262 578.899Z" fill="#F7C4A7"/>
<path id="Vector_64" opacity="0.1" d="M312.888 390.46L239.629 405.953C239.629 405.953 211.702 407.101 193.722 444.209C175.742 481.317 136.722 587.284 136.722 587.284C136.722 587.284 170.004 553.619 209.024 589.58L235.038 542.525L229.3 617.123H430.906V581.928C430.906 581.928 472.987 604.499 469.927 617.123C469.927 617.123 505.936 524.342 498.192 482.175C495.848 469.141 494.411 455.959 493.889 442.726V442.726C493.43 431.826 489.608 421.337 482.95 412.696C476.291 404.055 467.122 397.686 456.7 394.464C452.905 393.296 448.719 392.205 444.104 391.225C400.876 382.044 389.782 391.225 389.782 391.225C389.782 391.225 381.408 418.471 381.557 430.819C381.748 446.695 358.986 457.216 358.986 457.216C358.986 457.216 325.321 449.182 323.791 442.678C322.261 436.175 310.21 398.111 312.888 390.46Z" fill="black"/>
<path id="Vector_65" d="M312.888 388.93L239.629 404.423C239.629 404.423 211.702 405.571 193.722 442.678C175.742 479.786 136.722 585.754 136.722 585.754C136.722 585.754 170.004 552.089 209.024 588.049L235.038 540.995L229.3 615.593H430.906V580.398C430.906 580.398 472.987 602.969 469.927 615.593C469.927 615.593 505.936 522.812 498.192 480.645C495.848 467.61 494.411 454.429 493.889 441.195V441.195C493.43 430.296 489.608 419.807 482.95 411.166C476.291 402.525 467.122 396.156 456.7 392.934C452.905 391.766 448.719 390.675 444.104 389.695C400.876 380.513 389.782 389.695 389.782 389.695C389.782 389.695 381.408 416.941 381.557 429.289C381.748 445.165 358.986 455.685 358.986 455.685C358.986 455.685 325.321 447.652 323.791 441.148C322.261 434.645 310.21 396.581 312.888 388.93Z" fill="#575988"/>
<path id="Vector_66" opacity="0.1" d="M387.761 385.679C384.684 376.965 383.995 367.586 385.765 358.516L310.019 371.906C310.019 371.906 311.112 377.63 312.348 386.206C317.243 391.286 323.12 395.316 329.622 398.053C336.123 400.79 343.114 402.176 350.168 402.126C357.222 402.077 364.192 400.593 370.655 397.766C377.117 394.938 382.937 390.826 387.761 385.679V385.679Z" fill="black"/>
<path id="Vector_67" d="M400.684 346.657C400.685 360.347 395.289 373.484 385.669 383.223C376.048 392.961 362.976 398.515 349.288 398.681C335.6 398.847 322.398 393.612 312.543 384.11C302.689 374.608 296.977 361.605 296.645 347.92C296.633 347.499 296.63 347.078 296.63 346.657C296.628 336.916 299.361 327.369 304.517 319.104C309.673 310.839 317.045 304.187 325.796 299.905C327.356 299.144 328.959 298.458 330.604 297.847C339.168 294.699 348.405 293.842 357.402 295.361C357.408 295.364 357.415 295.365 357.421 295.364C368.946 297.327 379.472 303.116 387.301 311.797C395.13 320.479 399.804 331.545 400.57 343.21C400.646 344.35 400.684 345.499 400.684 346.657Z" fill="#F7C4A7"/>
<path id="Vector_68" d="M330.532 297.893C330.555 297.876 330.579 297.861 330.604 297.847C328.959 298.455 327.356 299.141 325.796 299.905C317.045 304.187 309.673 310.839 304.517 319.104C299.361 327.369 296.628 336.916 296.629 346.657C296.629 347.078 296.633 347.499 296.645 347.92C298.262 347.877 299.852 347.495 301.312 346.799C313.997 340.881 321.606 322.767 324.594 310.135C325.665 305.613 326.691 300.517 330.532 297.893Z" fill="#632652"/>
<path id="Vector_69" d="M370.355 299.354C366.238 297.462 361.889 296.121 357.421 295.364C361.086 296.207 364.359 298.263 366.71 301.198C367.861 302.765 368.816 304.468 369.553 306.267C362.629 303.24 355.13 301.753 347.575 301.91C340.019 302.066 332.588 303.862 325.796 307.174C329.063 314.331 339.189 318.237 345.948 320.85C353.351 323.708 360.84 326.321 368.416 328.689C366.186 326.875 363.955 325.065 361.725 323.256C366.759 324.056 371.795 324.857 376.832 325.659C376.996 322.652 376.639 319.639 375.778 316.753C378.653 319.086 382.509 319.867 385.65 321.849C391.538 325.559 393.986 332.721 397.196 338.895C397.939 340.595 399.099 342.079 400.57 343.21C399.949 333.857 396.815 324.845 391.496 317.125C386.178 309.406 378.874 303.266 370.355 299.354V299.354Z" fill="#632652"/>
<path id="Vector_70" opacity="0.1" d="M290.7 338.077C290.7 338.077 344.258 271.512 406.231 338.077L400.876 323.157C400.876 323.157 371.802 280.694 351.144 289.875C330.486 299.056 310.21 305.56 310.21 305.56L290.7 338.077Z" fill="black"/>
<path id="Vector_71" d="M290.7 336.902C290.7 336.902 344.258 270.338 406.231 336.902L400.876 321.982C400.876 321.982 371.802 279.519 351.144 288.7C330.486 297.882 310.21 304.385 310.21 304.385L290.7 336.902Z" fill="#E14B5A"/>
<path id="Vector_72" opacity="0.1" d="M246.706 480.36C246.706 480.36 235.229 510.965 251.297 538.508C267.364 566.052 237.142 577.529 237.142 577.529" fill="black"/>
<path id="Vector_73" opacity="0.1" d="M432.628 452.816C432.628 452.816 452.521 478.065 439.514 500.636C426.507 523.206 427.272 577.529 427.272 577.529" fill="black"/>
<path id="Vector_74" d="M229.109 600.1H450.225C455.095 600.1 459.766 602.034 463.21 605.478C466.653 608.922 468.588 613.592 468.588 618.462V618.462H210.746C210.746 613.592 212.681 608.922 216.124 605.478C219.568 602.034 224.239 600.1 229.109 600.1H229.109Z" fill="#535461"/>
<path id="Vector_75" d="M262.37 473.857H416.964C427.307 473.857 437.227 477.966 444.541 485.28C451.855 492.593 455.964 502.513 455.964 512.857V604.308H223.37V512.857C223.37 502.513 227.479 492.593 234.793 485.28C242.107 477.966 252.027 473.857 262.37 473.857V473.857Z" fill="#535461"/>
<path id="Vector_76" d="M339.476 558.593C347.082 558.593 353.248 552.427 353.248 544.821C353.248 537.215 347.082 531.049 339.476 531.049C331.87 531.049 325.704 537.215 325.704 544.821C325.704 552.427 331.87 558.593 339.476 558.593Z" fill="white"/>
<path id="Vector_77" opacity="0.1" d="M293.76 306.867C293.76 306.867 346.4 254.256 403.171 305.907" stroke="black" stroke-miterlimit="10"/>
<path id="Vector_78" d="M416.473 303.516H411.186V333.474H416.473V303.516Z" fill="#6A5C99"/>
<path id="Vector_79" d="M404.137 322.901C408.967 322.901 413.599 324.819 417.014 328.234C420.429 331.649 422.347 336.281 422.347 341.111V342.286C422.347 347.115 420.429 351.747 417.014 355.162C413.599 358.577 408.967 360.496 404.137 360.496V322.901Z" fill="#FFD037"/>
<path id="Vector_80" d="M404.725 321.138H404.725C402.454 321.138 400.613 322.979 400.613 325.25V358.146C400.613 360.417 402.454 362.258 404.725 362.258H404.725C406.996 362.258 408.837 360.417 408.837 358.146V325.25C408.837 322.979 406.996 321.138 404.725 321.138Z" fill="#6A5C99"/>
<path id="Vector_81" d="M279.919 334.062H285.206V304.103H279.919V334.062Z" fill="#6A5C99"/>
<path id="Vector_82" d="M292.255 361.083C287.425 361.083 282.793 359.165 279.378 355.75C275.963 352.335 274.045 347.703 274.045 342.873V341.698C274.045 336.869 275.963 332.237 279.378 328.822C282.793 325.407 287.425 323.488 292.255 323.488V361.083Z" fill="#FFD037"/>
<path id="Vector_83" d="M291.667 362.845H291.667C293.938 362.845 295.779 361.004 295.779 358.733V325.838C295.779 323.567 293.938 321.726 291.667 321.726H291.667C289.396 321.726 287.555 323.567 287.555 325.838V358.733C287.555 361.004 289.396 362.845 291.667 362.845Z" fill="#6A5C99"/>
<path id="Vector_84" d="M410.56 271.494C403.401 256.61 387.811 238.614 354.203 237.178L354.206 237.137L353.803 237.156L353.777 237.155L353.776 237.157L341.87 237.724L341.872 237.783C308.485 239.32 292.968 257.245 285.832 272.082C281.087 282.132 278.569 293.09 278.452 304.204L282.562 304.103L286.673 304.009C286.853 294.103 289.135 284.347 293.368 275.389C302.432 256.775 319.107 246.873 342.931 245.96L342.931 245.953L353.461 245.37L353.461 245.372C377.285 246.286 393.96 256.187 403.024 274.802C407.257 283.76 409.539 293.515 409.719 303.422L413.83 303.516L417.94 303.617C417.823 292.502 415.305 281.545 410.56 271.494V271.494Z" fill="#FFD037"/>
<path id="Vector_85" d="M598.393 618.704H37.615V769.267H598.393V618.704Z" fill="#D6D6E3"/>
<path id="Vector_86" opacity="0.1" d="M598.393 628.838H37.615V648.382H598.393V628.838Z" fill="black"/>
<path id="Vector_87" d="M636.004 616.533H0V636.077H636.004V616.533Z" fill="#D6D6E3"/>
<path id="Vector_88" d="M435.504 567.929C435.504 567.929 459.504 611.929 519.504 599.929C579.504 587.929 550.504 710.929 550.504 710.929C550.504 710.929 540.687 769.604 547.596 769.267" stroke="#535461" stroke-width="3" stroke-miterlimit="10"/>
</g>
<defs>
<linearGradient id="paint0_linear" x1="116" y1="36" x2="710" y2="382" gradientUnits="userSpaceOnUse">
<stop stop-color="#0047FF" stop-opacity="0.58"/>
<stop offset="1" stop-color="#00FFC2" stop-opacity="0.32"/>
</linearGradient>
<linearGradient id="paint1_linear" x1="931.479" y1="490.945" x2="931.479" y2="71.7504" gradientUnits="userSpaceOnUse">
<stop stop-color="#808080" stop-opacity="0.25"/>
<stop offset="0.53514" stop-color="#808080" stop-opacity="0.12"/>
<stop offset="1" stop-color="#808080" stop-opacity="0.1"/>
</linearGradient>
<linearGradient id="paint2_linear" x1="134311" y1="271847" x2="134311" y2="117640" gradientUnits="userSpaceOnUse">
<stop stop-color="#808080" stop-opacity="0.25"/>
<stop offset="0.53514" stop-color="#808080" stop-opacity="0.12"/>
<stop offset="1" stop-color="#808080" stop-opacity="0.1"/>
</linearGradient>
</defs>
</svg>
